<?xml version="1.0" encoding="UTF-8" standalone="no"?>
        <svg 
    viewBox="2.5634765625 -87.01171875 448.681640625 56.982421875"
    width="446.1181640625"
    height="143.994140625"
   xmlns="http://www.w3.org/2000/svg"
   xmlns:svg="http://www.w3.org/2000/svg">
   <path d="M67.53-53.39L27.03-53.39L27.03-45.48L67.53-45.48L67.53-53.39ZM27.03-59.99L27.03-57.57L67.53-57.57L67.53-63.72L62.40-63.57L58.37-63.57Q51.86-63.57 50.32-66.03Q48.78-68.48 48.78-74.12L48.78-74.12L48.78-82.98L44.38-82.98Q44.09-78.88 42.59-74.67Q41.09-70.46 37.43-66.65Q33.76-62.84 27.03-59.99L27.03-59.99ZM20.73-119.38L20.73-119.38L43.51-110.67Q43.07-109.50 41.60-108.62Q40.14-107.74 37.65-108.03L37.65-108.03Q36.18-106.05 34.42-104.19Q32.67-102.32 30.76-100.49L30.76-100.49L58.67-100.49L66.58-110.38L64.97-116.09L33.91-116.09L32.52-120.26L61.67-120.26L66.43-128.98L80.57-120.12Q79.32-118.65 75.73-117.70Q72.14-116.75 68.12-116.38L68.12-116.38Q71.92-112.57 78.59-109.61Q85.25-106.64 93.02-105.18L93.02-105.18L93.02-123.27L113.23-113.96L120.12-113.96L130.22-123.93L149.71-106.35Q148.32-104.30 142.97-104.08L142.97-104.08Q140.19-99.17 136.23-92.58Q132.28-85.99 127.77-79.36Q123.27-72.73 118.95-67.68L118.95-67.68Q127.66-62.62 133.19-55.85Q138.72-49.07 141.36-41.78Q143.99-34.50 143.99-27.91L143.99-27.91Q143.99-16.19 138.61-9.19Q133.23-2.20 119.24-2.12L119.24-2.12Q119.24-6.52 118.69-11.61Q118.14-16.70 117.11-18.75L117.11-18.75Q115.58-21.46 111.33-22.78L111.33-22.78L111.33 8.57Q111.33 9.59 107.30 11.94Q103.27 14.28 96.31 14.28L96.31 14.28L93.02 14.28L93.02-23.88Q92.14-22.19 89.43-22.19L89.43-22.19L54.93-22.19Q54.57-20.73 54.20-19.37Q53.83-18.02 53.39-16.63L53.39-16.63Q64.38-16.26 71.19-13.59Q78.00-10.91 81.34-7.10Q84.67-3.30 85.07 0.59Q85.47 4.47 83.61 7.43Q81.74 10.40 78.19 11.39Q74.63 12.38 70.02 10.33L70.02 10.33Q67.46 4.39 62.37-1.83Q57.28-8.06 51.93-12.74L51.93-12.74Q49.00-6.59 43.36-1.61Q37.72 3.37 28.13 7.32Q18.53 11.28 3.74 14.28L3.74 14.28L2.56 12.30Q14.72 7.76 21.57 2.60Q28.42-2.56 31.57-8.72Q34.72-14.87 35.67-22.19L35.67-22.19L6.59-22.19L5.42-26.37L36.18-26.37Q36.47-29.88 36.55-33.54Q36.62-37.21 36.62-41.24L36.62-41.24L27.03-41.24L27.03-36.77Q27.03-35.96 23.33-34.31Q19.63-32.67 13.18-32.67L13.18-32.67L10.18-32.67L10.18-87.01L4.83-84.89L3.15-86.43Q8.86-92.14 13.55-101.22Q18.24-110.30 20.73-119.38ZM67.53-35.82L67.53-41.24L56.69-41.24Q56.62-37.21 56.36-33.51Q56.10-29.81 55.66-26.37L55.66-26.37L65.99-26.37L73.54-36.04L70.53-35.82L67.53-35.82ZM31.20-87.16L31.20-96.31L25.78-96.31Q24.02-94.92 22.08-93.64Q20.14-92.36 18.16-91.19L18.16-91.19L28.49-87.16L31.20-87.16ZM48.78-96.31L44.53-96.31L44.53-87.16L48.78-87.16L48.78-96.31ZM73.54-96.31L61.82-96.31L61.82-87.16L66.87-87.16L74.12-95.43L73.54-96.31ZM78.88-36.77L78.88-36.77Q81.52-34.72 85.58-31.42Q89.65-28.13 93.02-25.20L93.02-25.20L93.02-97.63Q90.75-95.73 88.92-93.31Q87.08-90.89 86.13-88.18L86.13-88.18L90.75-84.59Q89.94-83.57 88.70-82.87Q87.45-82.18 84.89-81.74L84.89-81.74L84.89-39.62Q84.89-38.45 78.88-36.77ZM27.03-82.98L27.03-64.23Q29.74-68.48 30.40-73.24Q31.05-78.00 31.20-82.98L31.20-82.98L27.03-82.98ZM67.53-82.98L61.82-82.98L61.82-77.12Q61.82-75.15 62.99-75.15L62.99-75.15L64.23-75.15Q64.45-75.15 64.75-75.15Q65.04-75.15 65.41-75.15L65.41-75.15L67.53-75.29L67.53-82.98ZM121.66-109.79L121.66-109.79L111.33-109.79L111.33-24.90L119.09-24.90Q121.00-24.90 122.09-25.63L122.09-25.63Q123.56-26.66 124.40-28.60Q125.24-30.54 125.24-33.91L125.24-33.91Q125.24-42.11 122.97-50.94Q120.70-59.77 115.06-67.24L115.06-67.24Q116.24-72.51 117.52-80.05Q118.80-87.60 119.90-95.51Q121.00-103.42 121.66-109.79ZM247.92-103.05L249.17-103.93Q264.62-100.56 274.07-95.03Q283.52-89.50 288.02-83.28Q292.53-77.05 292.97-71.37Q293.41-65.70 290.88-61.85Q288.35-58.01 283.70-57.24Q279.05-56.47 273.49-60.13L273.49-60.13Q271.14-67.68 267.04-75.37Q262.94-83.06 257.96-90.16Q252.98-97.27 247.92-103.05L247.92-103.05ZM184.06-106.64L184.06-106.64L210.57-94.48Q210.06-93.38 208.81-92.69Q207.57-91.99 204.79-92.07L204.79-92.07Q199.66-83.64 192.37-74.71Q185.08-65.77 175.60-57.75Q166.11-49.73 154.47-43.95L154.47-43.95L153.30-45.26Q160.84-53.69 166.99-64.53Q173.14-75.37 177.47-86.43Q181.79-97.49 184.06-106.64ZM214.97-55.81L214.97-127.81L242.07-125.54Q241.63-122.17 237.01-121.51L237.01-121.51L237.01-54.42Q237.01-47.17 235.11-42.04Q233.20-36.91 227.27-33.87Q221.34-30.83 209.11-29.74L209.11-29.74Q208.67-35.08 207.79-38.89Q206.91-42.70 204.79-45.26L204.79-45.26Q202.59-47.75 199.40-49.58Q196.22-51.42 189.48-52.66L189.48-52.66L189.48-54.42Q189.48-54.42 192.37-54.27Q195.26-54.13 199.29-53.91Q203.32-53.69 206.95-53.54Q210.57-53.39 211.96-53.39L211.96-53.39Q214.97-53.39 214.97-55.81L214.97-55.81ZM256.05-63.57L256.05-63.57L282.42-49.66Q280.81-47.02 275.24-47.68L275.24-47.68Q263.89-31.05 251.37-19.85Q238.84-8.64 224.82-1.65Q210.79 5.35 194.93 9.19Q179.08 13.04 160.99 15.01L160.99 15.01L160.62 13.04Q175.71 8.42 189.55 2.27Q203.39-3.88 215.55-12.67Q227.71-21.46 237.93-33.91Q248.14-46.36 256.05-63.57ZM326.73-20.43L326.73-97.05Q325.56-96.17 322.78-95.73L322.78-95.73L322.78-20.43L326.73-20.43ZM384.89-128.54L384.89-128.54L410.38-121.80Q409.42-118.58 404.52-118.36L404.52-118.36Q402.39-114.26 399.90-110.38L399.90-110.38L412.50-110.38L423.27-120.63L440.55-105.32Q439.31-103.34 434.55-102.91L434.55-102.91Q427.95-92.21 418.95-83.86L418.95-83.86Q425.46-81.81 432.90-80.46Q440.33-79.10 448.68-78.30L448.68-78.30L448.32-76.68Q442.60-74.19 439.97-69.58Q437.33-64.97 436.67-57.71L436.67-57.71Q426.86-60.57 419.20-64.49Q411.55-68.41 405.47-73.32L405.47-73.32Q396.53-67.53 385.58-63.02Q374.63-58.52 361.52-55.52L361.52-55.52L361.52-12.60L391.92-12.60L391.92-26.73L370.17-26.73L368.99-30.91L391.92-30.91L391.92-44.53L368.70-44.53L367.53-48.78L391.92-48.78L391.92-64.23L416.97-61.96Q416.75-60.57 415.80-59.62Q414.84-58.67 412.06-58.23L412.06-58.23L412.06-48.78L417.63-48.78L426.78-60.42Q426.78-60.42 429.60-58.23Q432.42-56.03 436.34-52.88Q440.26-49.73 443.41-46.95L443.41-46.95Q442.75-44.53 439.23-44.53L439.23-44.53L412.06-44.53L412.06-30.91L417.77-30.91L426.64-43.51Q426.64-43.51 429.35-41.13Q432.06-38.75 435.72-35.38Q439.38-32.01 442.24-29.08L442.24-29.08Q441.80-26.73 438.13-26.73L438.13-26.73L412.06-26.73L412.06-12.60L419.82-12.60L429.93-25.93Q429.93-25.93 431.73-24.46Q433.52-23.00 436.34-20.69Q439.16-18.38 442.27-15.75Q445.39-13.11 447.88-10.77L447.88-10.77Q447.22-8.42 443.70-8.42L443.70-8.42L412.06-8.42L412.06 8.86Q412.06 9.59 409.53 10.84Q407.01 12.08 403.20 13.11Q399.39 14.14 395.58 14.14L395.58 14.14L391.92 14.14L391.92-8.42L361.82-8.42L361.52-9.59Q361.45-8.86 359.55-7.80Q357.64-6.74 354.90-5.93Q352.15-5.13 349.37-5.13L349.37-5.13L346.51-5.13L346.51-16.19L322.78-16.19L322.78-3.15Q322.78-2.34 320.84-1.17Q318.90 0 315.97 0.92Q313.04 1.83 310.03 1.83L310.03 1.83L307.03 1.83L307.03-102.03L326.73-100.05L326.73-122.97L347.68-121.07Q347.46-119.38 346.33-118.25Q345.19-117.11 342.11-116.67L342.11-116.67L342.11-20.43L346.51-20.43L346.51-102.61L366.87-100.63Q366.65-99.10 365.55-98.00Q364.45-96.90 361.52-96.46L361.52-96.46L361.52-58.23Q371.48-62.84 380.27-69.10Q389.06-75.37 396.17-82.76L396.17-82.76Q393.68-85.69 391.52-88.92Q389.36-92.14 387.45-95.58L387.45-95.58Q382.03-90.45 376.03-86.79Q370.02-83.13 363.57-80.42L363.57-80.42L362.11-81.74Q369.51-89.72 375.73-101.99Q381.96-114.26 384.89-128.54ZM390.89-98.88L390.89-98.88Q396.02-93.97 402.61-90.45L402.61-90.45Q405.54-94.19 408.00-98.18Q410.45-102.17 412.50-106.20L412.50-106.20L397.05-106.20Q395.58-104.15 394.04-102.36Q392.50-100.56 390.89-98.88Z"/>
    </svg>
        