<svg width="172" height="172" version="1.1" xmlns="http://www.w3.org/2000/svg" xmlns:xlink="http://www.w3.org/1999/xlink"><path d="M140.87 56.82L140.87 56.82Q139.66 58.71 135.36 58.37L135.36 58.37L108.36 43.06L106.47 41.51Q105.44 40.31 105.44 37.55L105.44 37.55Q109.56 35.15 124.70 39.10L124.70 39.10Q132.78 41.34 135.36 43.23L135.36 43.23Q140.87 47.70 140.87 56.82ZM73.96 93.80L73.96 93.80Q71.38 93.80 68.28 90.01L68.28 90.01Q67.42 88.98 66.91 88.47L66.91 88.47L57.10 79.18Q54.87 76.77 54.01 74.53L54.01 74.53L54.52 74.02L68.80 76.25L70.00 76.25L71.21 74.19L72.07 40.48Q72.41 31.19 71.38 25.86L71.38 25.86Q69.83 18.63 65.19 13.99L65.19 13.99Q65.19 12.27 67.94 10.72L67.94 10.72Q74.30 10.89 81.53 14.85L81.53 14.85Q83.25 15.88 84.28 16.74L84.28 16.74Q85.31 17.77 85.31 19.15L85.31 19.15Q85.31 20.01 83.59 24.14L83.59 24.14Q83.42 24.48 83.42 25.00L83.42 25.00Q80.50 36.01 81.53 57.85L81.53 57.85Q82.39 73.16 81.70 80.55L81.70 80.55Q81.18 88.81 74.82 93.28L74.82 93.28Q74.48 93.63 73.96 93.80ZM22.70 80.55L22.70 80.55Q17.89 74.02 23.91 63.70L23.91 63.70L29.41 54.41Q33.88 44.95 34.23 44.26L34.23 44.26Q35.60 42.20 36.29 42.20L36.29 42.20Q38.18 42.20 38.70 44.26L38.70 44.26Q40.94 51.83 36.98 64.39L36.98 64.39Q33.54 75.74 27.35 79.18L27.35 79.18Q25.11 80.55 22.70 80.55ZM113.52 69.72L113.52 69.72L113.35 72.64Q107.33 78.66 95.80 95.52L95.80 95.52Q87.55 107.56 81.70 113.58L81.70 113.58Q58.82 137.49 23.39 146.77L23.39 146.77Q22.53 146.95 21.67 147.29L21.67 147.29Q19.95 147.63 18.92 147.46L18.92 147.46L17.37 146.77Q18.06 144.71 22.02 143.16L22.02 143.16Q23.22 142.82 23.74 142.47L23.74 142.47Q28.90 139.72 36.64 134.39L36.64 134.39L57.79 121.32Q60.20 119.94 67.42 113.41L67.42 113.41Q95.80 88.47 98.04 60.95L98.04 60.95Q99.24 59.40 100.62 59.23L100.62 59.23Q106.98 60.95 113.52 69.72Z" stroke="#000" fill="black" /></svg>