<svg width="172" height="172" version="1.1" xmlns="http://www.w3.org/2000/svg" xmlns:xlink="http://www.w3.org/1999/xlink"><path d="M157.04 87.20L157.04 87.20L140.18 92.19Q127.97 94.94 118.34 87.72L118.34 87.72L91.50 69.32Q91.16 68.97 90.82 68.80L90.82 68.80Q70.69 88.06 54.52 93.40L54.52 93.40Q53.49 93.91 52.29 94.26L52.29 94.26L50.05 103.37Q48.50 107.33 46.10 107.33L46.10 107.33Q44.55 105.26 43.69 102.17L43.69 102.17L41.45 102.17Q23.91 108.88 18.06 112.49L18.06 112.49Q12.90 115.58 9.12 119.54L9.12 119.54Q5.50 119.54 1.20 115.24L1.20 115.24Q1.20 113.52 3.61 110.42L3.61 110.42Q4.30 109.22 4.64 108.36L4.64 108.36Q7.40 101.48 5.50 92.54L5.50 92.54Q4.64 88.24 2.75 84.97L2.75 84.97Q2.24 79.46 9.29 84.28L9.29 84.28Q12.04 86.34 13.24 87.72L13.24 87.72Q13.76 90.99 13.42 103.72L13.42 103.72Q13.24 105.26 13.24 106.64L13.24 106.64Q13.76 106.98 15.48 106.98L15.48 106.98Q20.47 104.06 25.80 102.17L25.80 102.17L26.32 100.96L25.97 61.75Q25.97 47.64 20.98 42.48L20.98 42.48Q20.98 40.08 22.53 39.22L22.53 39.22Q32.51 39.22 37.67 45.75L37.67 45.75Q35.60 57.79 33.54 91.16L33.54 91.16L32.85 99.24L43.17 96.15L44.38 94.94L45.41 83.76L44.38 76.37Q44.20 72.58 48.16 74.30L48.16 74.30Q52.12 75.85 53.66 79.64L53.66 79.64L54.01 81.36L52.46 89.96Q52.46 90.99 52.80 92.02L52.80 92.02Q70.18 80.15 85.31 64.67L85.31 64.67L71.90 53.66Q64.84 61.06 59.34 63.98L59.34 63.98L57.28 63.98L57.28 62.78Q75.85 43 82.56 27.18L82.56 27.18L81.70 21.50Q81.70 20.30 82.56 19.95L82.56 19.95Q87.03 20.47 90.99 24.25L90.99 24.25Q92.19 25.46 92.54 26.49L92.54 26.49Q92.88 26.83 92.88 27.86L92.88 27.86Q92.88 29.07 85.31 38.18L85.31 38.18Q84.62 39.04 84.28 39.22L84.28 39.22L96.49 37.32Q97.70 36.98 98.73 36.64L98.73 36.64Q103.89 34.74 105.95 34.74L105.95 34.74Q110.25 34.74 115.58 39.04L115.58 39.04L117.65 41.11Q116.62 42.66 112.14 46.61L112.14 46.61L110.42 48.33L94.94 65.02Q108.70 73.44 116.96 76.02L116.96 76.02Q117.48 76.20 117.82 76.20L117.82 76.20L156.52 85.66Q157.04 85.66 157.04 87.20ZM99.59 43.52L99.59 43.52L98.73 43L86.52 44.03L82.73 43.34Q82.22 43.17 81.87 43L81.87 43L73.96 51.60Q75.34 52.46 88.24 60.72L88.24 60.72Q96.49 51.60 99.24 44.72L99.24 44.72Q99.42 44.03 99.59 43.52ZM133.82 126.42L133.82 126.42L131.41 127.45Q105.78 127.45 93.05 129L93.05 129L92.19 162.71Q91.85 171.48 88.75 175.27L88.75 175.27Q86.86 175.27 86 173.55L86 173.55Q84.28 159.10 84.28 130.20L84.28 130.20Q78.26 129.86 64.16 133.47L64.16 133.47Q56.24 135.54 51.43 135.88L51.43 135.88Q48.16 136.05 45.41 133.82L45.41 133.82Q44.03 132.96 43.17 131.58L43.17 131.58Q43.17 130.03 45.92 129.69L45.92 129.69L84.28 124.53L84.45 115.76L72.07 117.13Q65.53 117.13 65.19 113.86L65.19 113.86Q70.00 112.32 84.28 110.08L84.28 110.08Q84.80 108.36 84.80 99.93L84.80 99.93L70.86 101.82Q65.36 101.82 62.78 98.38L62.78 98.38Q63.98 97.70 82.56 95.29L82.56 95.29Q83.76 95.12 84.45 94.94L84.45 94.94Q84.45 90.47 80.84 83.08L80.84 83.08Q80.84 81.36 82.73 80.50L82.73 80.50Q88.06 80.50 92.54 83.76L92.54 83.76Q95.12 85.48 95.12 87.55L95.12 87.55L94.26 92.54L94.26 92.71L105.09 90.99Q111.46 90.64 112.83 93.91L112.83 93.91Q112.83 95.12 111.46 95.80L111.46 95.80Q103.20 96.32 93.74 98.21L93.74 98.21L93.22 107.67Q94.08 107.67 97.52 106.47L97.52 106.47Q102.68 104.75 108.02 106.12L108.02 106.12Q112.66 107.16 113.18 110.42L113.18 110.42L111.80 111.28L93.22 113.86L92.71 122.98Q95.98 122.98 109.56 120.23L109.56 120.23Q125.22 116.79 131.06 121.43L131.06 121.43Q131.92 122.12 132.78 122.98L132.78 122.98Q133.82 124.53 133.82 126.42Z" stroke="#000" fill="black" /></svg>