<svg width="172" height="172" version="1.1" xmlns="http://www.w3.org/2000/svg" xmlns:xlink="http://www.w3.org/1999/xlink"><path d="M65.02 41.64L65.02 41.64L64.33 41.64L64.33 39.75Q72.24 27.88 73.79 25.13L73.79 25.13Q74.48 23.75 74.99 22.38L74.99 22.38L74.99 18.76Q75.16 17.90 76.02 17.56L76.02 17.56Q79.12 16.53 85.31 21.17L85.31 21.17Q86.86 22.38 87.72 23.41L87.72 23.41Q88.06 24.10 88.06 24.44L88.06 24.44Q88.24 25.47 86 26.85L86 26.85Q76.88 31.49 65.02 41.64ZM124.36 115.43L122.64 113.71L123.50 112.85L136.57 114.57Q138.80 114.57 140.87 113.88L140.87 113.88Q147.92 105.28 137.26 92.21L137.26 92.21Q135.02 89.46 132.44 87.22L132.44 87.22L125.56 82.58Q124.36 81.72 124.36 79.82L124.36 79.82Q124.36 79.14 128.31 69.68L128.31 69.68Q131.58 61.59 131.58 57.12L131.58 57.12Q130.20 53.85 113.86 60.90L113.86 60.90Q111.97 68.47 111.97 86.02L111.97 86.02L111.46 146.56Q111.46 167.37 107.33 167.37L107.33 167.37L106.12 167.03L104.75 164.62Q103.72 137.79 103.03 63.83L103.03 63.83L98.90 53.34Q98.90 52.30 101.82 51.10L101.82 51.10Q107.50 51.10 113.00 55.57L113.00 55.57Q127.45 49.90 131.58 47.32L131.58 47.32Q132.27 46.97 132.78 46.46L132.78 46.46Q137.77 46.46 144.31 51.10L144.31 51.10Q148.95 54.54 148.78 57.46L148.78 57.46Q141.73 63.14 140.70 64.17L140.70 64.17Q139.84 65.03 139.15 66.06L139.15 66.06L132.96 73.98Q131.58 76.04 131.58 77.59L131.58 77.59Q131.58 79.48 138.12 85.16L138.12 85.16Q148.78 94.79 151.70 101.84L151.70 101.84Q153.42 106.14 153.42 110.44L153.42 110.44Q153.42 116.80 149.47 124.20L149.47 124.20Q146.37 130.05 142.76 130.05L142.76 130.05Q140.70 130.05 137.43 125.75L137.43 125.75Q136.57 124.54 136.05 124.03L136.05 124.03L124.36 115.43ZM56.42 32.01L56.42 32.01Q57.62 37.51 56.07 39.92L56.07 39.92Q55.38 40.78 54.35 40.78L54.35 40.78L51.60 40.09L51.43 40.09L39.56 26.68Q39.56 24.61 40.25 23.75L40.25 23.75Q51.77 26.33 56.42 32.01ZM86.34 59.53L95.29 65.72Q95.29 67.61 92.88 71.05L92.88 71.05Q92.36 72.08 92.02 72.94L92.02 72.94Q91.33 74.66 88.92 90.32L88.92 90.32Q86.69 105.11 83.08 106.66L83.08 106.66Q80.84 106.66 77.40 103.39L77.40 103.39Q76.71 102.70 76.20 102.36L76.20 102.36Q73.96 102.36 58.14 103.90L58.14 103.90L54.52 104.25Q59.34 105.11 64.33 111.64L64.33 111.64L63.81 113.54L81.53 110.96Q90.47 110.27 93.57 114.40L93.57 114.40Q93.57 116.12 92.36 116.63L92.36 116.63L61.23 119.38L60.20 119.56Q55.21 134.00 44.55 144.15L44.55 144.15Q31.99 156.02 19.61 152.75L19.61 152.75Q36.12 144.32 43.52 133.83L43.52 133.83Q47.30 128.50 50.40 121.10L50.40 121.10Q37.50 122.48 26.66 125.23L26.66 125.23L16.34 127.81Q16.00 127.81 15.48 127.81L15.48 127.81Q11.87 128.16 7.91 125.23L7.91 125.23Q5.85 123.86 4.82 122.31L4.82 122.31Q4.82 120.42 6.54 119.73L6.54 119.73Q7.40 119.38 20.30 119.21L20.30 119.21Q20.81 119.04 21.33 119.04L21.33 119.04Q33.20 118.52 51.26 115.77L51.26 115.77Q51.77 112.85 51.43 104.42L51.43 104.42Q50.74 104.76 45.24 105.28L45.24 105.28Q40.25 105.62 40.25 109.58L40.25 109.58Q39.56 110.78 37.15 109.41L37.15 109.41Q32.85 106.14 32.85 97.71L32.85 97.71Q32.85 76.04 27.52 67.96L27.52 67.96Q27.00 64.86 32.34 66.58L32.34 66.58Q34.40 67.44 35.43 68.13L35.43 68.13L46.96 66.24Q48.50 62.11 47.47 58.50L47.47 58.50Q46.78 55.57 44.38 53.68L44.38 53.68L30.62 55.40Q24.77 55.57 21.33 52.30L21.33 52.30Q21.33 50.76 22.88 50.41L22.88 50.41Q23.91 50.07 34.92 49.04L34.92 49.04Q35.43 48.86 35.95 48.86L35.95 48.86Q54.01 46.11 63.12 44.56L63.12 44.56L80.84 40.95Q81.18 40.78 81.53 40.78L81.53 40.78Q85.66 40.44 89.61 42.84L89.61 42.84Q91.16 43.70 92.71 45.08L92.71 45.08Q92.71 46.63 90.82 46.97L90.82 46.97Q89.44 47.49 71.90 49.38L71.90 49.38Q67.60 49.72 65.19 50.24L65.19 50.24Q68.11 51.27 69.14 52.65L69.14 52.65Q68.63 54.20 66.56 62.28L66.56 62.28L84.45 59.53Q85.48 59.53 86.34 59.53L86.34 59.53ZM61.75 62.97L61.75 62.97L60.72 54.71Q60.20 52.65 58.82 51.27L58.82 51.27L50.91 52.82Q55.56 53.68 54.18 59.53L54.18 59.53L53.32 64.52Q57.79 63.48 61.75 62.97ZM82.22 68.13L82.22 68.13Q79.12 63.83 68.63 66.06L68.63 66.06L66.39 66.58L66.39 73.80Q68.28 75.87 74.13 76.73L74.13 76.73Q77.57 77.24 77.92 79.14L77.92 79.14Q75.68 81.72 70.18 81.72L70.18 81.72Q62.26 81.72 61.23 76.38L61.23 76.38Q61.23 75.87 61.23 67.27L61.23 67.27L54.18 68.99Q52.29 69.85 51.43 71.40L51.43 71.40L50.91 74.32Q47.99 82.06 46.27 84.12L46.27 84.12Q45.06 85.67 43.34 86.53L43.34 86.53Q43.34 83.78 46.27 72.60L46.27 72.60Q46.61 71.22 46.78 70.19L46.78 70.19L37.32 72.43L41.11 100.98L63.98 96.85Q74.99 95.48 77.06 98.06L77.06 98.06Q81.01 92.72 82.22 70.36L82.22 70.36Q82.22 69.16 82.22 68.13ZM46.10 91.00L46.10 91.00L46.44 89.28Q47.99 89.28 60.89 86.88L60.89 86.88Q65.70 86.02 69.14 86.02L69.14 86.02Q71.55 86.88 71.72 87.91L71.72 87.91Q71.90 90.32 61.06 91.69L61.06 91.69Q50.40 93.07 46.10 91.00ZM86.69 150.00L86.69 150.00L84.62 149.48L65.53 130.56L65.70 127.81Q77.92 132.28 81.01 134.35L81.01 134.35Q87.89 138.48 88.58 143.81L88.58 143.81L88.41 147.76Q87.89 149.48 86.69 150.00Z" stroke="#000" fill="black" /></svg>